<?xml version="1.0" encoding="utf-8"?>
<!-- Generator: Adobe Illustrator 27.1.1, SVG Export Plug-In . SVG Version: 6.00 Build 0)  -->
<!DOCTYPE svg [
	<!ENTITY ns_extend "http://ns.adobe.com/Extensibility/1.0/">
	<!ENTITY ns_ai "http://ns.adobe.com/AdobeIllustrator/10.0/">
	<!ENTITY ns_graphs "http://ns.adobe.com/Graphs/1.0/">
	<!ENTITY ns_vars "http://ns.adobe.com/Variables/1.0/">
	<!ENTITY ns_imrep "http://ns.adobe.com/ImageReplacement/1.0/">
	<!ENTITY ns_sfw "http://ns.adobe.com/SaveForWeb/1.0/">
	<!ENTITY ns_custom "http://ns.adobe.com/GenericCustomNamespace/1.0/">
	<!ENTITY ns_adobe_xpath "http://ns.adobe.com/XPath/1.0/">
]>
<svg version="1.2" baseProfile="tiny" id="Layer_1" xmlns:x="&ns_extend;" xmlns:i="&ns_ai;" xmlns:graph="&ns_graphs;"
	 xmlns="http://www.w3.org/2000/svg" xmlns:xlink="http://www.w3.org/1999/xlink" x="0px" y="0px" viewBox="0 0 792 526"
	 overflow="visible" xml:space="preserve">
<metadata>
	<sfw  xmlns="&ns_sfw;">
		<slices></slices>
		<sliceSourceBounds  bottomLeftOrigin="true" height="292.3" width="544.6" x="106.7" y="-378"></sliceSourceBounds>
	</sfw>
</metadata>
<path fill="none" d="M215.3,349.2c-0.2,3.1,1.5,6.2,3.9,8.2c2.4,2,5.5,3.1,8.6,3.7c-6.4,0.4-12,6.1-12.4,12.5c-0.9-3-2.3-6-4.5-8.4
	c-2.2-2.3-5.4-3.8-8.5-3.5c6.6-0.8,12.3-6.5,13-13.1"/>
<path fill="none" d="M146.8,364.6c17.3-16.4,40.6-26.2,64.4-27.2c23.8-0.9,47.8,7,66.3,22"/>
<path fill="none" d="M146.9,366.5c6-3,13.2-2.6,19.6-0.8s12.5,4.9,18.8,7.1c27.1,9.7,59.6,2.3,79.9-18.1"/>
<path fill="none" d="M273.8,339.3c2.4-4.2,4.9-8.5,7.3-12.7"/>
<path fill="none" d="M240.2,328c1-5.9,1.9-11.7,2.9-17.6"/>
<path fill="none" d="M212.3,329c-0.7-6.7-1.3-13.3-2-20"/>
<path fill="none" d="M180,329c-3.2-6.3-6.4-12.7-9.5-19"/>
<path fill="none" d="M144.8,343.2c-2.8-5.5-6.5-10.5-11-14.7"/>
<path fill="none" d="M127.6,356.2c-6.1-5-13.3-8.8-20.8-11"/>
<path fill="none" d="M234,373.1c2.8-5.8,2.5-13.3-0.2-19.3c-2.6-5.7-8-9.9-14.4-10.7c-12.5-2.1-21.3,4.1-25.3,13.1
	c-2.6,6-1.8,13.3,1.7,18.7"/>
<path fill="none" d="M607.8,289.2c-10.7-3-22.6,0.5-31.1,7.5s-14.1,17.2-17.2,27.9c-2.1,7.2-3.1,14.8-1.3,22
	c1.8,7.1,6.1,13.4,11.6,18.2c8.5,7.6,19.7,11.9,31,12.9c11.4,1,22.9-1.4,33.3-6c4.9-2.2,9.8-5,12.9-9.4c3.7-5.3,4.4-12.2,4.3-18.7
	c-0.4-17-5.8-34.4-17.8-46.5c-12-12-31.2-17.5-46.8-10.8"/>
<path fill="none" d="M596.4,304.8c6.2-0.5,12.3-0.9,18.5-1.4c0.5,0,1.1-0.1,1.5,0.1c1.3,0.6,1.2,2.5,0.8,3.8
	c-2.4,10.4-3.8,21.1-4,31.8c-0.1,4.1-0.6,9-4.3,10.7c-3.3,1.5-7.4-0.9-9-4.2c-1.6-3.3-1.5-7.1-1.6-10.7c-0.1-9.9-1.3-19.8-3.6-29.4"
	/>
<path fill="none" d="M608.5,355.5c-1.9-0.7-4.2-0.1-5.5,1.4c-1.5,1.8-1.5,4.6-0.3,6.6c1.4,2.3,4.4,3.5,7.1,2.8s4.6-3.3,4.6-6
	c0-2.7-2.1-5.3-4.8-5.9"/>
<path fill="none" d="M166.1,208c-14.6,14.4-32,26.1-50.9,34.2c15.9,11,31.8,21.9,47.6,32.9"/>
<path fill="none" d="M221.2,202.5c-16.7,24.4-32.9,49.1-48.5,74.3"/>
<path fill="none" d="M566.1,207.2c18.4,8.6,36.9,17.3,55.3,25.9c-15.4,13.4-30.8,26.8-46.2,40.3"/>
<path fill="none" d="M340.8,315.1c26.7-1.9,53.4-3.8,80-5.7c3.1-0.2,6.2-0.4,9.1,0.8c3.8,1.6,6.1,5.6,6.9,9.6
	c0.8,4,0.2,8.2-0.3,12.3c-29.2,1.7-58.3,3.5-87.5,5.2c-2.8,0.2-5.7,0.3-8.2-1c-3.2-1.7-4.8-5.7-4.7-9.4c0.1-3.7,1.5-7.2,2.8-10.6"/>
<path fill="none" d="M343.1,349.5c48-1.7,96-3.4,144.1-5.2c0.5,5.7,1.1,11.3,1.6,17c0.2,1.7,0.3,3.6-0.6,5c-1.3,2.1-4.2,2.5-6.7,2.6
	c-44.2,2.5-88.4,5.1-132.6,7.6c-3.1,0.2-6.4,0.3-8.9-1.5c-3.5-2.5-3.8-7.6-3.3-12c0.5-4.3,1.4-9-0.9-12.7"/>
<path fill="none" d="M231.3,159.8c8.1,0.6,16.2,1.3,24.4,1.9c1.4,0.1,2.8,0.2,3.9-0.6c1.9-1.3,1.7-4,1.5-6.2
	c-1-8.7-0.8-17.5,0.6-26.2c0.5-3,1.2-6.1,0.8-9.2c-0.2-1.4-11.8,1-13.1,1.3c-4.5,1.2-8.9,3.1-12.9,5.6c-7.8,5.1-14,13.3-16.1,22.9
	c-0.8,3.7-1.1,5.2-0.8,8.9L231.3,159.8z"/>
<path fill="none" d="M263.1,202.9c0.8-8.5,0.5-17.2,1.3-25.7c0.2-2.1,0.2-4.5-1.4-5.8c-1-0.8-2.4-0.8-3.7-0.9
	c-7.4-0.1-14.9-0.3-22.3-0.5c-3.8-0.1-7.6-0.1-11.5-0.1c-1.9,0-3.7,0.1-5.6,0.2c-1.6,0.1-4-0.2-5.5,0.5c0.4,2.2,1.5,4.3,2.5,6.4
	c7.5,15.9,23.1,27.9,40.5,30.6c1.8,0.3,3.6,0.5,5.5,0.5L263.1,202.9z"/>
<path fill="none" d="M269.2,121.5c0.4,10.8,0.7,21.6,1.1,32.4c0.1,1.7,0.1,3.5,1.1,4.9c0.9,1.3,2.5,1.9,3.9,2.6
	c9.7,4.1,19.5,8.2,29.2,12.3l8.1,2.3c4.2-11.4,4.4-24.4-0.3-35.7c-6.8-16.3-25.5-28.5-43.1-29.1V121.5z"/>
<path fill="none" d="M295,179.2c-5.9-3.5-12.6-5.8-18.8-8.9c-0.5-0.3-1.2-0.5-1.7-0.2c-0.5,0.3-0.6,1-0.6,1.6
	c-0.2,7.9-1,15.9-1.2,23.8l0.4,6.5c10.3-1.6,20-6.9,26.7-14.9c0.5-0.6,1.5-1.5,1.8-2.3c0.2-0.7,0.3-0.3,0-0.9
	c-0.2-0.3-0.9-0.7-1.2-1c-1.5-1.1-3-2.2-4.5-3.2C295.5,179.5,295.3,179.3,295,179.2z"/>
<path fill="none" d="M511.7,115.8c-11.7-5.2-24.6-8.5-37.3-7.3c-12.8,1.2-25.4,7.5-32.4,18.3c-7,10.8-7.1,26.1,1.3,35.8
	c8.1,9.3,21.4,11.6,33.7,12.2c12.4,0.6,24.9-0.1,37.1-2c5.2-0.8,10.5-1.8,15.5-0.4c8.7,2.4,15.4,11.7,24.4,11
	c-5-4.6-10.4-10.6-9-17.2c0.9-4.3,4.5-7.4,7-11c6.1-8.8,5.6-21.1,0.3-30.4c-5.3-9.3-14.8-15.6-25-18.9c-10.2-3.3-21-3.9-31.7-3.8"/>
<path fill="none" d="M455.8,106c-1.7-1.8-3.4-3.5-5.1-5.3c-4.4-4.5-8.5-9.3-12.8-13.9c-0.5-0.5-1-1.1-1.7-1.1
	c-0.8-0.1-1.5,0.5-2.1,1c-10.7,9.7-21.4,19.4-32.1,29.1c5.6-0.1,11.2-0.2,16.8-0.2c1.2,0,2.6,0,3.5,0.8c1.2,1,1.3,2.8,1.3,4.4
	c-0.3,22.8-0.5,45.6-0.8,68.4h19.3c-0.1-5.9-0.1-11.9-0.2-17.8"/>
<path fill="none" d="M359.7,158.9c1.6,11.9,3.1,23.7,4.7,35.6"/>
<path fill="none" d="M344,181.4c11.4-2.3,22.7-4.7,34.1-7"/>
</svg>
